<svg width="15" height="15" viewBox="0 0 15 15" fill="none" xmlns="http://www.w3.org/2000/svg">
<path d="M13.5 5.52975V10.875C13.5 11.3723 13.3025 11.8492 12.9508 12.2008C12.5992 12.5525 12.1223 12.75 11.625 12.75H3.375C2.87772 12.75 2.40081 12.5525 2.04917 12.2008C1.69754 11.8492 1.5 11.3723 1.5 10.875V5.52975L7.3095 8.94825C7.36721 8.98229 7.43299 9.00024 7.5 9.00024C7.567 9.00024 7.63278 8.98229 7.6905 8.94825L13.5 5.52975ZM11.625 3C12.0864 2.99993 12.5315 3.16995 12.8754 3.47755C13.2193 3.78515 13.4376 4.20873 13.4887 4.66725L7.5 8.19L1.51125 4.66725C1.56237 4.20873 1.78074 3.78515 2.1246 3.47755C2.46845 3.16995 2.91364 2.99993 3.375 3H11.625Z" fill="black"/>
</svg>
