<svg width="20" height="20" viewBox="0 0 20 20" fill="none" xmlns="http://www.w3.org/2000/svg">
<path d="M13.245 2.817C13.7553 2.30752 14.4435 2.01605 15.1646 2.00399C15.8856 1.99193 16.5832 2.26022 17.1103 2.75234C17.6374 3.24446 17.9529 3.92198 17.9904 4.64214C18.0278 5.3623 17.7842 6.06888 17.311 6.613L17.181 6.753L7.57496 16.359C7.3702 16.5635 7.12353 16.7211 6.85196 16.821L6.68696 16.874L2.63196 17.98C2.55341 18.0016 2.47076 18.0038 2.39121 17.9862C2.31165 17.9686 2.2376 17.9318 2.1755 17.8791C2.11339 17.8263 2.06512 17.7592 2.03487 17.6836C2.00463 17.6079 1.99333 17.526 2.00196 17.445L2.01796 17.365L3.12396 13.311C3.19996 13.031 3.33596 12.771 3.52196 12.551L3.63896 12.423L13.245 2.817ZM12.385 5.092L4.34596 13.13C4.25411 13.222 4.18108 13.331 4.13096 13.451L4.08896 13.574L3.21196 16.784L6.42396 15.909C6.50762 15.8862 6.58797 15.8526 6.66296 15.809L6.76996 15.737L6.86796 15.652L14.906 7.612L12.385 5.092ZM16.474 3.524C16.1595 3.20929 15.7387 3.02352 15.2943 3.00317C14.8499 2.98282 14.4139 3.12935 14.072 3.414L13.952 3.524L13.092 4.384L15.612 6.906L16.474 6.046C16.7887 5.73152 16.9744 5.31076 16.9948 4.86633C17.0151 4.4219 16.8686 3.98592 16.584 3.644L16.474 3.524Z" fill="#4F48EC"/>
</svg>
