<svg width="20" height="20" viewBox="0 0 20 20" fill="none" xmlns="http://www.w3.org/2000/svg">
<path d="M16.6666 10C16.6666 9.08085 15.9191 8.33335 14.9999 8.33335H14.1666V5.83335C14.1666 3.53585 12.2974 1.66669 9.99992 1.66669C7.70242 1.66669 5.83325 3.53585 5.83325 5.83335V8.33335H4.99992C4.08075 8.33335 3.33325 9.08085 3.33325 10V16.6667C3.33325 17.5859 4.08075 18.3334 4.99992 18.3334H14.9999C15.9191 18.3334 16.6666 17.5859 16.6666 16.6667V10ZM7.49992 5.83335C7.49992 4.45502 8.62158 3.33335 9.99992 3.33335C11.3783 3.33335 12.4999 4.45502 12.4999 5.83335V8.33335H7.49992V5.83335Z" fill="black"/>
</svg>
