<svg width="14" height="14" viewBox="0 0 14 14" fill="none" xmlns="http://www.w3.org/2000/svg">
<g clip-path="url(#clip0)">
<path fill-rule="evenodd" clip-rule="evenodd" d="M1.6493 0.447229C1.8024 0.294356 1.98624 0.175767 2.18865 0.0993199C2.39105 0.0228727 2.60738 -0.00968693 2.82332 0.00379876C3.03926 0.0172844 3.24986 0.0765075 3.44118 0.177543C3.6325 0.278579 3.80016 0.41912 3.93305 0.589854L5.50367 2.6076C5.79155 2.97773 5.89305 3.45985 5.7793 3.91485L5.30067 5.8311C5.27593 5.93036 5.27726 6.03432 5.30455 6.1329C5.33184 6.23148 5.38416 6.32133 5.45642 6.39373L7.6063 8.5436C7.67878 8.61601 7.76878 8.66842 7.86753 8.69571C7.96628 8.72301 8.07042 8.72426 8.1698 8.69935L10.0852 8.22073C10.3097 8.16459 10.5441 8.16023 10.7705 8.20798C10.997 8.25573 11.2097 8.35434 11.3924 8.49635L13.4102 10.0661C14.1355 10.6305 14.202 11.7024 13.5528 12.3507L12.648 13.2555C12.0005 13.903 11.0328 14.1874 10.1307 13.8697C7.82171 13.0573 5.72529 11.7355 3.99692 10.0022C2.2638 8.27412 0.941956 6.17801 0.129424 3.86935C-0.187326 2.9681 0.0970488 1.99948 0.744549 1.35198L1.6493 0.447229ZM10.9374 0.875104C11.0535 0.875104 11.1647 0.921197 11.2468 1.00324C11.3288 1.08529 11.3749 1.19657 11.3749 1.3126V2.6251H12.6874C12.8035 2.6251 12.9147 2.6712 12.9968 2.75324C13.0788 2.83529 13.1249 2.94657 13.1249 3.0626C13.1249 3.17864 13.0788 3.28992 12.9968 3.37196C12.9147 3.45401 12.8035 3.5001 12.6874 3.5001H11.3749V4.8126C11.3749 4.92864 11.3288 5.03992 11.2468 5.12196C11.1647 5.20401 11.0535 5.2501 10.9374 5.2501C10.8214 5.2501 10.7101 5.20401 10.6281 5.12196C10.546 5.03992 10.4999 4.92864 10.4999 4.8126V3.5001H9.18742C9.07139 3.5001 8.96011 3.45401 8.87806 3.37196C8.79602 3.28992 8.74992 3.17864 8.74992 3.0626C8.74992 2.94657 8.79602 2.83529 8.87806 2.75324C8.96011 2.6712 9.07139 2.6251 9.18742 2.6251H10.4999V1.3126C10.4999 1.19657 10.546 1.08529 10.6281 1.00324C10.7101 0.921197 10.8214 0.875104 10.9374 0.875104Z" fill="black"/>
</g>
<defs>
<clipPath id="clip0">
<rect width="14" height="14" fill="white"/>
</clipPath>
</defs>
</svg>
